# xmcd
#
# Track frame offsets:
#	150
#	20625
#	49302
#	91767
#	112837
#	135782
#	158620
#	182807
#	201040
#	231002
#	264375
#
# Disc length: 3704 seconds
#
# Revision: 0
# Processed by: cddbd v1.5.1PL0 Copyright (c) Steve Scherf et al.
# Submitted via: EasyCDDAExtractor 7.5.2.1
#
DISCID=800e760b
DTITLE=Buddy Guy - Buddy's Blues - The Best of the JSP Sessions 1979-82
DYEAR=1900
DGENRE=Blues
TTITLE0=She Suits Me To A "T"
TTITLE1=Have You Ever Been Lonesome?
TTITLE2=Tell Me What's Inside of You
TTITLE3=Girl You're Nice and Clean
TTITLE4=She Winked Her Eye
TTITLE5=Me and My Guitar
TTITLE6=D.J. Play My Blues
TTITLE7=Buddy's Blues Pt. 1
TTITLE8=The Dollar Done Fell
TTITLE9=Breaking Out On Top
TTITLE10=Comin' On
EXTD=
EXTT0=
EXTT1=
EXTT2=
EXTT3=
EXTT4=
EXTT5=
EXTT6=
EXTT7=
EXTT8=
EXTT9=
EXTT10=
PLAYORDER=
